<svg width="46" height="26" viewBox="0 0 46 26" fill="none" xmlns="http://www.w3.org/2000/svg">
<path fill-rule="evenodd" clip-rule="evenodd" d="M42.6151 14.2299C41.826 12.7853 37.0875 3.23245 36.3977 2.39816C35.706 1.45372 34.2271 0.455098 32.2515 0.675409C29.1924 0.953505 28.2047 4.11911 26.7239 7.00662C26.2309 8.00524 22.9732 14.4484 22.5795 14.7825C22.184 14.3924 22.184 14.1161 21.2956 13.3378C20.9001 12.9478 20.2085 12.6155 19.618 12.2832C20.5064 11.3388 21.1981 10.8946 21.6911 9.39572C22.0847 8.00524 22.0847 6.50641 21.4942 5.17552C20.5064 2.95255 18.5327 1.78599 15.5711 1.17562C13.1026 0.731389 8.46521 1.00768 5.79802 1.00768C1.65185 1.00768 0.664062 1.7878 0.664062 5.89604V20.7832C0.664062 25.2256 4.01928 24.7813 6.58716 24.7813C11.4232 24.7813 16.1616 25.2833 20.0116 23.3945C20.604 23.8387 20.7033 24.2829 21.6893 24.7272C22.4802 25.0594 23.4662 25.1154 24.2571 24.7813C26.527 23.8369 25.7379 22.2279 27.4155 21.9498C28.797 21.7277 31.9554 21.8938 33.4379 21.8938C34.7201 21.8938 38.1746 21.6157 38.9656 22.3381C39.4585 22.7263 39.6572 23.5046 40.2495 24.0608C42.1239 25.8377 45.1848 24.9493 45.8764 22.5602C46.3694 20.8392 45.2841 19.3404 44.5925 18.1178C43.9009 16.7833 43.3086 15.5066 42.6169 14.2299H42.6151Z" fill="#38485C"/>
</svg>
