<?xml version="1.0" encoding="UTF-8"?>
<!DOCTYPE svg PUBLIC "-//W3C//DTD SVG 1.1//EN" "http://www.w3.org/Graphics/SVG/1.1/DTD/svg11.dtd">
<svg xmlns="http://www.w3.org/2000/svg" version="1.1" width="40px" height="40px" style="shape-rendering:geometricPrecision; text-rendering:geometricPrecision; image-rendering:optimizeQuality; fill-rule:evenodd; clip-rule:evenodd" xmlns:xlink="http://www.w3.org/1999/xlink">
<g><path style="opacity:1" fill="#fefffe" d="M -0.5,-0.5 C 12.8333,-0.5 26.1667,-0.5 39.5,-0.5C 39.5,12.8333 39.5,26.1667 39.5,39.5C 26.1667,39.5 12.8333,39.5 -0.5,39.5C -0.5,26.1667 -0.5,12.8333 -0.5,-0.5 Z"/></g>
<g><path style="opacity:1" fill="#202020" d="M 8.5,10.5 C 16.5,10.5 24.5,10.5 32.5,10.5C 32.5,16.5 32.5,22.5 32.5,28.5C 24.5,28.5 16.5,28.5 8.5,28.5C 8.5,22.5 8.5,16.5 8.5,10.5 Z"/></g>
<g><path style="opacity:1" fill="#fedb2d" d="M 28.5,13.5 C 25.8502,14.8249 23.1835,16.1582 20.5,17.5C 18.5061,16.5108 16.5061,15.5108 14.5,14.5C 14.0825,13.7784 13.4158,13.2784 12.5,13C 18.0164,12.1826 23.3497,12.3493 28.5,13.5 Z"/></g>
<g><path style="opacity:1" fill="#fedb2d" d="M 12.5,15.5 C 15.1025,17.1417 17.7692,18.8084 20.5,20.5C 23.7376,18.7247 26.7376,16.7247 29.5,14.5C 30.4834,18.2984 30.8168,22.2984 30.5,26.5C 23.8333,26.5 17.1667,26.5 10.5,26.5C 10.3345,22.4862 10.5012,18.4862 11,14.5C 11.3826,15.056 11.8826,15.3893 12.5,15.5 Z"/></g>
<g><path style="opacity:1" fill="#3b3b3b" d="M 28.5,13.5 C 28.5,14.1667 28.8333,14.5 29.5,14.5C 26.7376,16.7247 23.7376,18.7247 20.5,20.5C 17.7692,18.8084 15.1025,17.1417 12.5,15.5C 12.8417,14.6618 13.5084,14.3284 14.5,14.5C 16.5061,15.5108 18.5061,16.5108 20.5,17.5C 23.1835,16.1582 25.8502,14.8249 28.5,13.5 Z"/></g>
</svg>
