<svg width="9" height="19" viewBox="0 0 9 19" fill="none" xmlns="http://www.w3.org/2000/svg">
<path d="M8.35824 9.72742H5.84294V18.7058H2.11119V9.72742H0.335938V6.55647H2.11119V4.504C2.07104 3.99934 2.14084 3.49198 2.31579 3.01692C2.49075 2.54186 2.76669 2.11041 3.12457 1.75234C3.48244 1.39427 3.91373 1.11809 4.38869 0.942875C4.86365 0.767657 5.37094 0.697564 5.87562 0.737433L8.63864 0.747977V3.82405H6.63569C6.52389 3.81815 6.41215 3.83705 6.30851 3.8794C6.20487 3.92176 6.11188 3.98651 6.03622 4.06903C5.96055 4.15155 5.90409 4.24978 5.87086 4.3567C5.83763 4.46361 5.82848 4.57655 5.84403 4.68742V6.55119H8.69031L8.35824 9.72742Z" fill="white"/>
</svg>
