<svg width="22" height="21" viewBox="0 0 22 21" fill="none" xmlns="http://www.w3.org/2000/svg">
<path d="M11.0257 2.00633C13.7665 2.00633 14.0923 2.01687 15.176 2.06642C15.8269 2.07477 16.4715 2.19456 17.0819 2.42062C17.5247 2.59174 17.9268 2.85353 18.2624 3.1892C18.5981 3.52487 18.8599 3.92699 19.0311 4.36978C19.2574 4.9805 19.3771 5.62553 19.3852 6.27678C19.4347 7.35941 19.4453 7.6841 19.4453 10.426C19.4453 13.1679 19.4347 13.4926 19.3852 14.5752C19.3771 15.2265 19.2574 15.8715 19.0311 16.4822C18.8607 16.9254 18.5991 17.3279 18.2633 17.6637C17.9276 17.9995 17.5251 18.261 17.0819 18.4314C16.4715 18.6574 15.8268 18.7772 15.176 18.7856C14.0933 18.8351 13.7676 18.8457 11.0257 18.8457C8.28378 18.8457 7.95802 18.8351 6.87539 18.7856C6.22416 18.7773 5.5792 18.6575 4.96843 18.4314C4.52551 18.2605 4.1232 17.9988 3.78751 17.6631C3.45181 17.3274 3.19017 16.9251 3.01927 16.4822C2.79298 15.8715 2.67311 15.2265 2.665 14.5752C2.61546 13.4926 2.60491 13.1669 2.60491 10.426C2.60491 7.68516 2.61546 7.35836 2.665 6.27678C2.67311 5.62553 2.79298 4.9805 3.01927 4.36978C3.19051 3.92706 3.45224 3.525 3.78789 3.18935C4.12354 2.85369 4.52571 2.59186 4.96843 2.42062C5.57919 2.19445 6.22415 2.07465 6.87539 2.06642C7.95802 2.01687 8.28378 2.00633 11.0257 2.00633ZM11.0257 0.15625C8.23634 0.15625 7.88744 0.167844 6.7911 0.217391C5.93904 0.2345 5.09606 0.395972 4.29799 0.694934C3.61572 0.958588 2.99601 1.36196 2.4788 1.87917C1.96159 2.39638 1.55831 3.016 1.29466 3.69827C0.996368 4.49649 0.835238 5.33942 0.818142 6.19139C0.768596 7.28667 0.755859 7.63666 0.755859 10.426C0.755859 13.2153 0.768596 13.5643 0.818142 14.6596C0.835056 15.5115 0.996192 16.3545 1.29466 17.1527C1.55831 17.835 1.96159 18.4546 2.4788 18.9718C2.99601 19.489 3.61572 19.8924 4.29799 20.156C5.09593 20.4555 5.93899 20.6169 6.7911 20.6336C7.88639 20.6831 8.23528 20.6958 11.0257 20.6958C13.8161 20.6958 14.1639 20.6831 15.2592 20.6336C16.1113 20.6169 16.9544 20.4554 17.7523 20.156C18.4346 19.8924 19.0543 19.4891 19.5715 18.9718C20.0887 18.4546 20.4921 17.835 20.7557 17.1527C21.0546 16.3546 21.216 15.5116 21.2332 14.6596C21.2828 13.5653 21.2954 13.2143 21.2954 10.426C21.2954 7.63772 21.2828 7.28773 21.2332 6.19139C21.2158 5.33936 21.0544 4.49641 20.7557 3.69827C20.4921 3.01597 20.0887 2.39632 19.5715 1.8791C19.0543 1.36188 18.4346 0.958531 17.7523 0.694934C16.9543 0.395992 16.1113 0.234521 15.2592 0.217391C14.165 0.167844 13.815 0.15625 11.0257 0.15625Z" fill="white"/>
<path d="M11.0267 5.14844C9.98425 5.14844 8.9652 5.45757 8.09841 6.03674C7.23162 6.61591 6.55603 7.43911 6.1571 8.40223C5.75816 9.36536 5.65376 10.4251 5.85714 11.4476C6.06051 12.47 6.56253 13.4092 7.29967 14.1464C8.03682 14.8835 8.97597 15.3855 9.99842 15.5889C11.0209 15.7923 12.0807 15.6879 13.0438 15.2889C14.007 14.89 14.8301 14.2144 15.4093 13.3476C15.9885 12.4809 16.2976 11.4618 16.2976 10.4193C16.2976 9.02138 15.7423 7.68072 14.7538 6.69224C13.7653 5.70376 12.4246 5.14844 11.0267 5.14844ZM11.0267 13.8454C10.3497 13.8454 9.68794 13.6446 9.12505 13.2685C8.56215 12.8924 8.12354 12.3578 7.86446 11.7324C7.60539 11.1069 7.53756 10.4187 7.66964 9.75469C7.80171 9.09072 8.12775 8.48081 8.60645 8.00211C9.08515 7.52341 9.69501 7.19741 10.359 7.06533C11.023 6.93326 11.7111 7.00105 12.3366 7.26012C12.962 7.51919 13.4967 7.95791 13.8728 8.52081C14.2489 9.0837 14.4497 9.74548 14.4497 10.4225C14.4497 11.3303 14.089 12.2009 13.4471 12.8428C12.8052 13.4847 11.9345 13.8454 11.0267 13.8454Z" fill="white"/>
<path d="M16.5058 6.17559C17.1864 6.17559 17.7381 5.62386 17.7381 4.94327C17.7381 4.26267 17.1864 3.71094 16.5058 3.71094C15.8252 3.71094 15.2734 4.26267 15.2734 4.94327C15.2734 5.62386 15.8252 6.17559 16.5058 6.17559Z" fill="white"/>
</svg>
