<svg width="22" height="22" viewBox="0 0 22 22" fill="none" xmlns="http://www.w3.org/2000/svg">
<path d="M20.4513 0.890625H1.71025C1.39963 0.890625 1.10173 1.01402 0.882095 1.23366C0.662455 1.4533 0.539063 1.75119 0.539062 2.06181V20.8029C0.539062 20.9567 0.569356 21.109 0.628214 21.2511C0.687071 21.3932 0.77334 21.5223 0.882095 21.631C0.99085 21.7398 1.11996 21.8261 1.26205 21.8849C1.40415 21.9438 1.55645 21.9741 1.71025 21.9741H20.4513C20.6051 21.9741 20.7574 21.9438 20.8995 21.8849C21.0416 21.8261 21.1707 21.7398 21.2795 21.631C21.3882 21.5223 21.4745 21.3932 21.5334 21.2511C21.5922 21.109 21.6225 20.9567 21.6225 20.8029V2.06181C21.6225 1.90801 21.5922 1.75571 21.5334 1.61362C21.4745 1.47152 21.3882 1.34241 21.2795 1.23366C21.1707 1.1249 21.0416 1.03863 20.8995 0.979776C20.7574 0.920919 20.6051 0.890625 20.4513 0.890625ZM6.79242 18.8548H3.66258V8.79692H6.79242V18.8548ZM5.22802 7.41912C4.86941 7.41912 4.51885 7.31278 4.22068 7.11354C3.9225 6.91431 3.6901 6.63113 3.55287 6.29981C3.41563 5.9685 3.37972 5.60393 3.44969 5.25221C3.51965 4.90048 3.69234 4.57741 3.94591 4.32383C4.19949 4.07025 4.52257 3.89756 4.87429 3.8276C5.22601 3.75764 5.59058 3.79355 5.9219 3.93078C6.25321 4.06802 6.53639 4.30042 6.73562 4.59859C6.93486 4.89677 7.0412 5.24733 7.0412 5.60594C7.0412 6.08682 6.85017 6.54801 6.51013 6.88805C6.1701 7.22809 5.70891 7.41912 5.22802 7.41912ZM18.5043 18.8548H15.3787V13.9624C15.3787 12.7954 15.3576 11.2953 13.7531 11.2953C12.1255 11.2953 11.8777 12.5677 11.8777 13.8801V18.8558H8.75318V8.79692H11.7512V10.1673H11.7945C12.0938 9.65513 12.5263 9.23359 13.046 8.94755C13.5657 8.6615 14.1533 8.52165 14.7461 8.54286C17.9087 8.54286 18.4979 10.6259 18.4979 13.3362V18.8527L18.5043 18.8548Z" fill="white"/>
</svg>
