<svg width="27" height="19" viewBox="0 0 27 19" fill="none" xmlns="http://www.w3.org/2000/svg">
<path d="M2.12229 18.3538C1.44702 18.3538 0.924482 18.1707 0.554689 17.8045C0.184897 17.4382 0 16.9048 0 16.2042V8.29838C0 7.61369 0.176858 7.08823 0.530573 6.722C0.900365 6.35577 1.4229 6.17265 2.09817 6.17265C2.77345 6.17265 3.28794 6.35577 3.64166 6.722C3.99537 7.08823 4.17223 7.61369 4.17223 8.29838V9.61204L3.90694 8.44169C4.24458 7.74108 4.743 7.18377 5.40219 6.76977C6.07747 6.33985 6.87332 6.12488 7.78977 6.12488C8.65798 6.12488 9.39756 6.33188 10.0085 6.74588C10.6356 7.15988 11.0857 7.78884 11.3591 8.63277H11.0214C11.3912 7.85254 11.9459 7.2395 12.6855 6.79365C13.4251 6.34781 14.2451 6.12488 15.1454 6.12488C16.078 6.12488 16.8417 6.308 17.4365 6.67423C18.0314 7.02454 18.4736 7.58185 18.763 8.34615C19.0685 9.09454 19.2212 10.042 19.2212 11.1884V16.2042C19.2212 16.9048 19.0283 17.4382 18.6424 17.8045C18.2726 18.1707 17.742 18.3538 17.0507 18.3538C16.3754 18.3538 15.8529 18.1707 15.4831 17.8045C15.1133 17.4382 14.9284 16.9048 14.9284 16.2042V11.3078C14.9284 10.6232 14.8239 10.1295 14.6149 9.827C14.4058 9.52446 14.0602 9.37319 13.5778 9.37319C12.9829 9.37319 12.5247 9.58019 12.2032 9.99419C11.8977 10.4082 11.7449 10.9973 11.7449 11.7617V16.2042C11.7449 16.9048 11.56 17.4382 11.1903 17.8045C10.8205 18.1707 10.2899 18.3538 9.59854 18.3538C8.90718 18.3538 8.37661 18.1707 8.00682 17.8045C7.63703 17.4382 7.45213 16.9048 7.45213 16.2042V11.3078C7.45213 10.6232 7.34762 10.1295 7.13861 9.827C6.9296 9.52446 6.58392 9.37319 6.10158 9.37319C5.52278 9.37319 5.07259 9.58019 4.75103 9.99419C4.44555 10.4082 4.29281 10.9973 4.29281 11.7617V16.2042C4.29281 17.6373 3.56931 18.3538 2.12229 18.3538Z" fill="#38485C"/>
<path d="M23.8358 18.3538C23.1605 18.3538 22.638 18.1548 22.2682 17.7567C21.8984 17.3586 21.7135 16.7854 21.7135 16.037V8.48946C21.7135 7.74108 21.8984 7.16785 22.2682 6.76977C22.638 6.37169 23.1605 6.17265 23.8358 6.17265C24.5272 6.17265 25.0577 6.37169 25.4275 6.76977C25.8134 7.16785 26.0063 7.74108 26.0063 8.48946V16.037C26.0063 16.7854 25.8214 17.3586 25.4516 17.7567C25.0819 18.1548 24.5432 18.3538 23.8358 18.3538ZM23.8358 4.47685C23.0802 4.47685 22.4933 4.30169 22.0753 3.95138C21.6733 3.60108 21.4724 3.09154 21.4724 2.42277C21.4724 1.76992 21.6733 1.26835 22.0753 0.91804C22.4933 0.567732 23.0802 0.392578 23.8358 0.392578C24.6236 0.392578 25.2185 0.567732 25.6205 0.91804C26.0224 1.26835 26.2234 1.76992 26.2234 2.42277C26.2234 3.09154 26.0224 3.60108 25.6205 3.95138C25.2185 4.30169 24.6236 4.47685 23.8358 4.47685Z" fill="#38485C"/>
</svg>
