<svg width="19" height="15" viewBox="0 0 19 15" fill="none" xmlns="http://www.w3.org/2000/svg">
<path d="M16.4892 3.9561C16.4956 4.11423 16.5009 4.27235 16.5009 4.43259C16.5012 6.31438 15.9951 8.1616 15.0358 9.78047C14.0764 11.3993 12.699 12.7302 11.0482 13.6335C9.39735 14.5367 7.53388 14.9791 5.65321 14.9142C3.77253 14.8492 1.94399 14.2794 0.359375 13.2645C0.650859 13.2983 0.944068 13.3152 1.23751 13.315C2.89788 13.3171 4.51055 12.7601 5.81574 11.7338C5.04648 11.7195 4.30098 11.4651 3.68345 11.0062C3.06593 10.5472 2.60731 9.90671 2.37179 9.17426C2.60088 9.21713 2.83341 9.23901 3.06648 9.23962C3.39401 9.23949 3.72007 9.19625 4.0363 9.11101C3.2031 8.94093 2.45424 8.48826 1.91638 7.82957C1.37852 7.17089 1.0847 6.34663 1.08463 5.49625V5.44987C1.59742 5.73408 2.17056 5.89199 2.75655 5.91054C1.97573 5.38912 1.42305 4.58965 1.21113 3.67497C0.999206 2.76029 1.14395 1.79922 1.6159 0.987552C2.54111 2.127 3.69587 3.05887 5.00503 3.72253C6.31419 4.38619 7.74842 4.76677 9.21439 4.8395C9.03067 4.04918 9.11262 3.22034 9.4475 2.48128C9.78237 1.74222 10.3515 1.13416 11.0668 0.751225C11.7822 0.368286 12.6038 0.231826 13.4046 0.362972C14.2053 0.494118 14.9404 0.88556 15.4963 1.47669C16.322 1.31406 17.1138 1.01136 17.8375 0.581693C17.5631 1.43619 16.9868 2.1614 16.2162 2.62152C16.9471 2.53543 17.6609 2.34035 18.334 2.04278C17.8378 2.78519 17.2131 3.43312 16.4892 3.9561Z" fill="white"/>
</svg>
