<svg width="22" height="21" viewBox="0 0 22 21" fill="none" xmlns="http://www.w3.org/2000/svg">
<path d="M17.769 20.5726H4.09008C3.1362 20.5715 2.22171 20.192 1.54722 19.5175C0.872724 18.843 0.493303 17.9286 0.492188 16.9747L0.492188 13.4759C0.493303 12.5223 0.872613 11.6081 1.54691 10.9338C2.22121 10.2595 3.13543 9.88016 4.08902 9.87904H17.769C18.7224 9.88044 19.6364 10.2599 20.3105 10.9341C20.9845 11.6084 21.3637 12.5225 21.3648 13.4759V16.9757C21.3637 17.9291 20.9845 18.8432 20.3105 19.5175C19.6364 20.1917 18.7224 20.5712 17.769 20.5726ZM16.5567 12.972C16.3446 12.9632 16.1328 12.9966 15.9337 13.0705C15.7346 13.1443 15.5522 13.257 15.3971 13.4021C15.2482 13.5471 15.1312 13.7218 15.0539 13.9148C14.9765 14.1078 14.9405 14.3149 14.9481 14.5227V16.8946C14.923 17.3318 15.0689 17.7616 15.355 18.0932C15.4992 18.2412 15.6735 18.3567 15.866 18.432C16.0585 18.5072 16.2649 18.5405 16.4713 18.5296C16.6862 18.5459 16.9022 18.5181 17.1059 18.448C17.3097 18.3778 17.4969 18.2668 17.6562 18.1216C17.9454 17.7809 18.0893 17.3403 18.0568 16.8946V16.6247H16.9742V16.865C16.9948 17.0719 16.9583 17.2804 16.8688 17.468C16.8226 17.5177 16.7655 17.5559 16.702 17.5796C16.6385 17.6034 16.5704 17.6121 16.503 17.6051C16.4343 17.6118 16.3652 17.6004 16.3023 17.5721C16.2394 17.5438 16.185 17.4996 16.1445 17.4438C16.0601 17.2628 16.0238 17.0631 16.0391 16.864V15.8699H18.0621V14.5227C18.0892 14.1023 17.9485 13.6884 17.671 13.3715C17.5226 13.232 17.3471 13.1246 17.1554 13.0559C16.9637 12.9871 16.7599 12.9586 16.5567 12.972ZM7.55514 13.1016V17.5197C7.53649 17.7691 7.60139 18.0176 7.73962 18.226C7.80577 18.3071 7.89054 18.371 7.98672 18.4123C8.0829 18.4536 8.18764 18.4711 8.29201 18.4632C8.5074 18.4591 8.71833 18.4011 8.90554 18.2945C9.1349 18.1681 9.34068 18.0029 9.5138 17.8064V18.3915H10.568V13.1016H9.5138V17.1149C9.41879 17.2257 9.30839 17.3222 9.18595 17.4016C9.09798 17.4618 8.99592 17.4981 8.88973 17.507C8.85051 17.5097 8.81121 17.5034 8.77472 17.4888C8.73823 17.4743 8.70548 17.4516 8.67889 17.4227C8.6306 17.3414 8.60852 17.2471 8.61564 17.1528V13.1016H7.55514ZM12.4328 17.9804C12.5551 18.1298 12.7083 18.2511 12.8819 18.3356C13.0551 18.4157 13.2445 18.455 13.4353 18.4505C13.5695 18.4594 13.7038 18.4371 13.828 18.3856C13.9521 18.334 14.0627 18.2545 14.1511 18.1532C14.3334 17.9054 14.422 17.601 14.4009 17.2941V14.3624C14.4242 14.0125 14.3316 13.6646 14.1374 13.3726C14.0457 13.2598 13.9285 13.1704 13.7954 13.1119C13.6623 13.0534 13.5172 13.0275 13.3721 13.0363C13.2014 13.0379 13.0336 13.0805 12.8829 13.1607C12.7131 13.2564 12.5609 13.3805 12.4328 13.5275V11.2231H11.3607V18.3915H12.4286V17.9804H12.4328ZM3.43649 11.2231V12.2625H4.66671V18.3841H5.85793V12.2646H7.09025V11.2231H3.43649ZM12.9346 17.6251C12.8461 17.625 12.7588 17.6044 12.6795 17.565C12.586 17.5182 12.5015 17.4554 12.4296 17.3795V14.0894C12.4925 14.0233 12.5659 13.9681 12.6468 13.926C12.7166 13.8936 12.7923 13.876 12.8692 13.8744C12.9313 13.8708 12.9934 13.8813 13.0509 13.905C13.1084 13.9287 13.1598 13.9651 13.2013 14.0114C13.282 14.1313 13.3192 14.2753 13.3067 14.4194V17.1476C13.3177 17.276 13.2862 17.4045 13.2171 17.5134C13.1814 17.553 13.1371 17.5838 13.0875 17.6033C13.038 17.6229 12.9845 17.6307 12.9314 17.6262L12.9346 17.6251ZM16.9742 15.0466H16.0391V14.5195C16.0234 14.3539 16.0622 14.1877 16.1498 14.0462C16.1938 13.9941 16.2498 13.9535 16.313 13.9278C16.3761 13.9021 16.4446 13.892 16.5125 13.8986C16.5785 13.8922 16.645 13.9024 16.7061 13.9281C16.7672 13.9539 16.8209 13.9945 16.8624 14.0462C16.9492 14.188 16.988 14.3539 16.9731 14.5195V15.0466H16.9742ZM10.7472 8.19447C10.2895 8.21633 9.84152 8.05817 9.49904 7.75383C9.34189 7.60093 9.21892 7.41647 9.13825 7.2126C9.05757 7.00873 9.02102 6.79007 9.03099 6.57105V3.554C9.02252 3.34925 9.06129 3.1453 9.14428 2.95793C9.22727 2.77056 9.35226 2.6048 9.50958 2.47348C9.87979 2.19116 10.3381 2.04923 10.8031 2.07289C11.2447 2.05699 11.6762 2.20748 12.0122 2.49456C12.1653 2.63094 12.2866 2.79921 12.3676 2.98753C12.4487 3.17585 12.4875 3.37965 12.4813 3.58457V6.59318C12.4936 6.81005 12.459 7.02702 12.3798 7.2293C12.3007 7.43159 12.1789 7.61445 12.0227 7.76542C11.667 8.06422 11.2111 8.21681 10.7472 8.19236V8.19447ZM10.7472 3.08701C10.619 3.08209 10.4935 3.12406 10.394 3.20507C10.3497 3.24314 10.3145 3.29064 10.291 3.34409C10.2675 3.39753 10.2562 3.45557 10.258 3.51395V6.68068C10.2538 6.74781 10.263 6.81511 10.2851 6.87864C10.3072 6.94217 10.3417 7.00066 10.3867 7.05069C10.4339 7.09712 10.4905 7.1329 10.5526 7.15563C10.6148 7.17835 10.6812 7.18751 10.7472 7.18247C10.8168 7.18708 10.8867 7.17781 10.9528 7.15519C11.0188 7.13257 11.0797 7.09705 11.132 7.05069C11.1811 7.00291 11.2194 6.94517 11.2443 6.88134C11.2692 6.81751 11.2801 6.74909 11.2764 6.68068V3.51078C11.2783 3.45146 11.2661 3.39254 11.2408 3.33885C11.2155 3.28515 11.1778 3.23822 11.1309 3.20191C11.0199 3.11743 10.8822 3.07588 10.743 3.0849L10.7472 3.08701ZM14.2818 8.13333C14.1647 8.14179 14.0473 8.1222 13.9393 8.07618C13.8314 8.03016 13.7359 7.95904 13.6609 7.86873C13.5041 7.64097 13.4297 7.36652 13.4501 7.09075V2.22364H14.6381V6.69017C14.6308 6.79518 14.6574 6.89976 14.714 6.9885C14.7445 7.0218 14.7822 7.0476 14.8242 7.06388C14.8663 7.08016 14.9116 7.08647 14.9565 7.08232C15.0757 7.07135 15.1898 7.02917 15.2875 6.96004C15.4244 6.87282 15.5479 6.7663 15.6544 6.64378V2.22364H16.8424V8.04373H15.6512V7.39963C15.4567 7.6197 15.2247 7.80352 14.966 7.94253C14.7549 8.05962 14.5189 8.12434 14.2776 8.13122L14.2818 8.13333ZM7.37699 8.04373H6.0403V4.9181L4.44428 0.154297H5.79257L6.66121 3.30944H6.74659L7.57623 0.154297H8.93506L7.37699 4.77263V8.04056V8.04373Z" fill="white"/>
</svg>
